<?xml version="1.0" encoding="UTF-8"?>
<svg version="1.1" xmlns="http://www.w3.org/2000/svg" width="2084" height="2084">
<path d="M0 0 C3.94434679 0.00881065 7.88868909 0.00570219 11.83304298 0.00419545 C18.63265731 0.00315748 25.43223263 0.00931849 32.23183715 0.02067113 C42.06236334 0.03707333 51.89287107 0.042149 61.72340945 0.04464711 C77.68101562 0.04900142 93.63860109 0.06224832 109.59619606 0.08125234 C125.07796585 0.09967027 140.55972998 0.11379765 156.04150856 0.12226796 C156.99921459 0.12279341 157.95692063 0.12331886 158.94364806 0.12386023 C163.74919591 0.1264707 168.5547438 0.12899802 173.36029172 0.13148403 C213.09315646 0.15214584 252.82599812 0.18730878 292.55884254 0.23213124 C288.37653369 17.05360503 288.37653369 17.05360503 286.33008277 24.64741445 C286.04219398 25.71792767 286.04219398 25.71792767 285.74848926 26.81006742 C285.12290056 29.13473678 284.49522661 31.45883681 283.86743629 33.78291249 C283.40977267 35.48117534 282.95220529 37.17946412 282.49472511 38.87777638 C281.25713779 43.47009949 280.01744623 48.061852 278.77716911 52.6534493 C277.98679756 55.57997364 277.1969877 58.50664907 276.40732276 61.43336415 C267.55825315 94.22729994 258.6369464 127.00132218 249.68884742 159.76835561 C240.98232773 191.65078796 232.31172097 223.54277583 223.67107856 255.44312596 C222.74858377 258.84885689 221.82599904 262.25456345 220.903386 265.66026235 C218.49852992 274.53751224 216.09380513 283.41479769 213.68930519 292.29214406 C209.92834462 306.17743386 206.16685244 320.06257922 202.40259254 333.94697499 C202.16115139 334.83752584 201.91971023 335.72807668 201.67095268 336.64561391 C198.07499877 349.9078055 194.47027047 363.16759321 190.85795677 376.42533803 C188.39936721 385.4488422 185.95120436 394.47501353 183.5220145 403.5064795 C182.00726128 409.13695453 180.48440412 414.76519098 178.95486248 420.39166665 C178.08351301 423.59851761 177.21794482 426.80665125 176.36069191 430.01731801 C175.44468016 433.44630932 174.51356176 436.87082926 173.57837379 440.29463124 C173.31384407 441.30053807 173.04931434 442.3064449 172.77676857 443.34283376 C172.4016967 444.69762586 172.4016967 444.69762586 172.01904762 446.07978749 C171.80782768 446.86361806 171.59660774 447.64744863 171.37898719 448.45503163 C170.97301559 449.33469594 170.97301559 449.33469594 170.55884254 450.23213124 C167.36687565 451.29612021 165.08903418 451.36206292 161.73419654 451.37016225 C160.51801643 451.37561559 159.30183631 451.38106893 158.04880226 451.38668752 C156.69830793 451.3878074 155.34781354 451.38885791 153.9973191 451.38984609 C152.57608338 451.3945155 151.15484914 451.39965928 149.73361671 451.4052422 C146.6676315 451.41652929 143.60165605 451.42496137 140.53565681 451.43136144 C135.66474799 451.44207374 130.7939079 451.46233548 125.92303932 451.4844811 C112.06925127 451.54626988 98.21546463 451.60012467 84.36157691 451.63349843 C76.71356727 451.65200304 69.06567059 451.68114696 61.41774428 451.72150314 C57.38111291 451.74233963 53.34462256 451.75799623 49.30793464 451.76031041 C17.77272209 451.783785 -11.72558845 454.11769902 -40.44115746 468.23213124 C-41.55748559 468.77611562 -42.67381371 469.32009999 -43.82396996 469.88056874 C-63.35737722 479.90614885 -79.81822221 494.29780171 -92.44115746 512.23213124 C-92.86880394 512.83863515 -93.29645043 513.44513906 -93.7370559 514.07002187 C-116.26441685 546.64175496 -123.81791245 586.76629082 -116.98900902 625.48603749 C-109.50470365 663.00095141 -87.05126816 698.986703 -55.12865746 720.41963124 C-27.14679483 738.63390314 2.6592518 745.11382061 35.75024879 745.86494374 C37.31780718 745.906252 38.88534757 745.94824814 40.45287025 745.99088979 C44.51477631 746.09959057 48.57685288 746.1991514 52.63904274 746.29658437 C56.80972337 746.39831329 60.98016627 746.50899661 65.15063941 746.61884999 C73.28650423 746.83187269 81.42257219 747.03520725 89.55884254 747.23213124 C87.01786623 758.31557838 84.26125511 769.3119311 81.24243629 780.27509999 C80.82956864 781.78357335 80.41698991 783.2921258 80.00467384 784.80075002 C79.12834592 788.00510693 78.25023681 791.20896779 77.37064064 794.41242909 C75.96462105 799.53342793 74.56294934 804.65561061 73.16211402 809.77802968 C72.68166289 811.53477471 72.20120939 813.29151909 71.72075355 815.04826283 C71.48175519 815.92216538 71.24275684 816.79606793 70.99651611 817.69645238 C70.26744649 820.36175588 69.53799 823.02695324 68.80843055 825.6921227 C64.41521778 841.74293223 60.05086499 857.80149479 55.69603431 873.86275411 C54.72773157 877.43370952 53.75899876 881.00454826 52.79028785 884.57539296 C52.39758648 886.02298379 52.00488629 887.47057493 51.61218727 888.9181664 C51.4167382 889.63864156 51.22128913 890.35911672 51.01991737 891.10142446 C50.42490159 893.29488488 49.82994012 895.48836004 49.23499 897.68183827 C44.64138172 914.61714904 40.04155856 931.55077163 35.44178474 948.48440862 C34.27943817 952.76350755 33.11714055 957.04261979 31.95483863 961.32173085 C30.5523137 966.48523206 29.14978328 971.64873178 27.74722755 976.81222463 C24.77298308 987.76190877 21.79901426 998.71166775 18.82526672 1009.66148686 C8.84784616 1046.39995202 -1.13161007 1083.13786373 -11.11388314 1119.87501073 C-11.93041081 1122.88008032 -12.74690121 1125.88516004 -13.56338036 1128.89024282 C-13.82594282 1129.85659248 -14.08850527 1130.82294215 -14.35902417 1131.81857514 C-14.87811888 1133.72909368 -15.39719707 1135.63961671 -15.91625798 1137.55014443 C-17.14137163 1142.05917168 -18.36697788 1146.56806378 -19.59379113 1151.07662892 C-21.55526936 1158.28588745 -23.51473111 1165.49556384 -25.45287621 1172.71113515 C-25.73812157 1173.76935979 -26.02336693 1174.82758443 -26.31725609 1175.91787648 C-26.81640559 1177.7709524 -27.31299114 1179.62472206 -27.80626976 1181.4793694 C-29.32894316 1187.11991695 -29.32894316 1187.11991695 -30.44115746 1188.23213124 C-42.05465426 1188.84341866 -53.58880134 1187.80517843 -65.12865746 1186.60713124 C-66.41782067 1186.47558644 -66.41782067 1186.47558644 -67.73302758 1186.34138417 C-128.71580076 1180.05366374 -187.30604999 1165.11423366 -243.44115746 1140.23213124 C-244.5320266 1139.74986073 -245.62289574 1139.26759023 -246.74682152 1138.77070546 C-261.13488072 1132.37061632 -275.11808218 1125.45837862 -288.82494652 1117.70576406 C-291.38208432 1116.26540537 -293.95252645 1114.85198225 -296.52709496 1113.44306874 C-322.96369652 1098.83470294 -347.93482187 1081.15950425 -371.44115746 1062.23213124 C-372.35896996 1061.49736562 -373.27678246 1060.76259999 -374.22240746 1060.00556874 C-392.41954162 1045.28729847 -409.38081659 1029.37310763 -425.94115746 1012.85713124 C-426.50791192 1012.29305562 -427.07466637 1011.72898 -427.6585952 1011.14781117 C-433.80533693 1005.02312274 -439.82861276 998.85704233 -445.44115746 992.23213124 C-446.48593643 991.04018658 -447.53280627 989.85007131 -448.58178246 988.66181874 C-455.3109761 980.98566425 -461.79648194 973.17548919 -468.01684105 965.08174062 C-469.51110904 963.14129251 -471.01675386 961.2100202 -472.52318871 959.27900624 C-497.46393464 927.16508739 -518.21227551 892.54201654 -536.44115746 856.23213124 C-537.12105736 854.88634999 -537.12105736 854.88634999 -537.81469262 853.51338124 C-577.5292524 774.41992066 -596.45559336 685.06809083 -567.95579064 409.44097829 C-555.55194486 372.31238598 -539.8353996 336.25355631 -520.44115746 302.23213124 C-519.96533226 301.39633534 -519.48950707 300.56053945 -518.99926293 299.6994164 C-503.27077988 272.31251625 -485.00496669 246.27388472 -464.86938012 221.96455312 C-462.82853256 219.48902247 -460.8268861 216.98214909 -458.81615746 214.48213124 C-454.79381496 209.56511329 -450.54276674 204.89827334 -446.21459496 200.25166249 C-444.16353311 198.04337324 -442.18403585 195.78385783 -440.21679223 193.50068593 C-436.70811265 189.48521553 -433.03330961 185.67908079 -429.25756371 181.91572499 C-428.59836434 181.2555689 -427.93916497 180.5954128 -427.25998986 179.91525197 C-425.87718911 178.53177618 -424.49314671 177.14954041 -423.10790551 175.7685082 C-421.00885403 173.67481455 -418.91519806 171.5758325 -416.82201684 169.47627187 C-415.4675196 168.12243554 -414.11271215 166.76890949 -412.75756371 165.41572499 C-412.14272622 164.79886327 -411.52788872 164.18200154 -410.89441979 163.54644704 C-406.57099787 159.24583578 -402.06662775 155.20444376 -397.44115746 151.23213124 C-396.34704093 150.28203234 -395.2532252 149.33158674 -394.15990746 148.38056874 C-358.82773224 117.86567515 -320.52304455 91.81560969 -279.3632766 69.79780507 C-277.21806802 68.64840055 -275.07724632 67.49079871 -272.93896019 66.32856679 C-264.47700675 61.74403795 -255.91084884 57.49017906 -247.12865746 53.54463124 C-246.47563653 53.25043294 -245.82261559 52.95623464 -245.14980614 52.65312123 C-191.35264028 28.50986532 -134.62619929 12.33274242 -76.19115746 4.48213124 C-75.44924157 4.38089955 -74.70732567 4.27966786 -73.94292748 4.17536855 C-49.35420953 0.86149567 -24.78600867 -0.0697867 0 0 Z M-239.44115746 814.23213124 C-240.2236184 815.01459218 -241.00607934 815.79705312 -241.81225121 816.60322499 C-256.49000538 832.07303335 -263.91716785 853.22415809 -263.58959496 874.45088124 C-262.35388705 897.60414519 -253.71869722 916.14222883 -237.44115746 932.23213124 C-236.3467434 933.34201406 -236.3467434 933.34201406 -235.23021996 934.47431874 C-218.91338245 950.06326759 -196.88017047 955.98407117 -174.83178246 955.53681874 C-152.82542301 954.59324344 -133.01237105 943.74740954 -117.85912621 928.06416249 C-103.64947352 911.42119286 -95.33905863 889.93036712 -96.65990746 867.94697499 C-98.51511499 844.50641528 -108.77310177 823.87163239 -126.44115746 808.23213124 C-160.57246643 780.66453553 -208.52404272 783.3150165 -239.44115746 814.23213124 Z " fill="#FFDF48" transform="translate(709.4411574602127,506.7678687572479)"/>
<path d="M0 0 C2.50346236 -0.00302384 5.00692379 -0.00691448 7.51038361 -0.01159257 C12.93398706 -0.01971376 18.35753774 -0.02168185 23.7811451 -0.01808929 C31.84607299 -0.01276132 39.91096459 -0.01889833 47.97588854 -0.02717223 C63.21713518 -0.04237982 78.45836516 -0.04412088 93.6996178 -0.0416492 C105.46503045 -0.03981454 117.23043765 -0.04157977 128.99584961 -0.04587364 C130.68780935 -0.04647604 132.37976909 -0.04707724 134.07172883 -0.04767724 C136.62144806 -0.04858451 139.1711673 -0.04949318 141.72088654 -0.0504096 C165.41093999 -0.05883338 189.1009914 -0.06317851 212.79104614 -0.05900288 C214.12944168 -0.05876831 214.12944168 -0.05876831 215.49487551 -0.05852901 C220.01698968 -0.05772325 224.53910385 -0.05687748 229.06121802 -0.05601571 C229.95929304 -0.05584462 230.85736806 -0.05567353 231.78265747 -0.05549726 C233.59877709 -0.0551506 235.4148967 -0.05480207 237.23101631 -0.05445167 C265.51640926 -0.04908946 293.80177106 -0.05704143 322.0871582 -0.07548523 C353.87865758 -0.09619105 385.67013767 -0.10693115 417.46164417 -0.10290974 C420.84941927 -0.1025144 424.23719438 -0.10215285 427.62496948 -0.10181236 C428.45910606 -0.10172163 429.29324263 -0.1016309 430.15265607 -0.10153742 C442.75177272 -0.10037081 455.3508699 -0.10702417 467.94998169 -0.11762428 C482.26868807 -0.12965899 496.58735149 -0.13125475 510.90605849 -0.11883412 C518.92090052 -0.11219316 526.93563989 -0.11386514 534.95047377 -0.12742263 C540.9285731 -0.13660947 546.90654676 -0.13018089 552.88464439 -0.11757483 C555.30758844 -0.11490974 557.73054439 -0.1173507 560.15347683 -0.1253107 C563.43824102 -0.13535629 566.72246026 -0.12704619 570.00720215 -0.1140337 C570.95515433 -0.12134304 571.90310652 -0.12865239 572.87978452 -0.13618323 C578.44395076 -0.09026802 582.31687594 0.6992441 587.27514648 3.26069641 C586.05360617 10.60189743 584.46128274 17.7267195 582.45092773 24.88960266 C582.01645073 26.46252831 582.01645073 26.46252831 581.57319641 28.06723022 C580.92834214 30.40052252 580.28138444 32.73323422 579.63262939 35.06544495 C577.94681288 41.12762972 576.27458061 47.19355307 574.60249329 53.25953674 C574.17916867 54.79512582 573.75567265 56.33066766 573.33201599 57.86616516 C569.15464845 73.00898956 565.03232725 88.16658923 560.91967773 103.32710266 C560.59646797 104.51844881 560.27325821 105.70979496 559.94025421 106.93724251 C558.61030662 111.83949136 557.28041746 116.74175605 555.95059967 121.64404011 C538.24746999 186.89918752 520.36849119 252.09073619 501.25036621 316.9478302 C500.32122361 320.10417031 499.39664913 323.26181119 498.47338867 326.4198761 C489.73644772 356.24837774 480.21246482 380.74163356 459.27514648 404.26069641 C458.65510742 404.9658136 458.03506836 405.67093079 457.39624023 406.39741516 C429.96060495 435.67436825 384.6711425 454.0804626 344.88202393 455.46351588 C343.27670962 455.50392346 341.67127395 455.53969674 340.06576729 455.571558 C338.74259208 455.60214716 338.74259208 455.60214716 337.39268605 455.63335429 C334.4887725 455.69840569 331.58477865 455.75643918 328.68069458 455.81333923 C327.66772509 455.83428168 326.65475561 455.85522414 325.61109008 455.87680121 C303.71780599 456.32518199 281.82851216 456.41430244 259.9313345 456.41732788 C254.44567925 456.41921758 248.96003124 456.42684903 243.47438049 456.43380737 C234.02595999 456.44517788 224.57754114 456.45350052 215.12911606 456.45992661 C200.17412947 456.47039103 185.219164 456.49098036 170.26419067 456.51304626 C165.11897856 456.52051984 159.97376637 456.52793423 154.82855415 456.53533363 C153.54393884 456.5371842 152.25932353 456.53903477 150.93578049 456.54094141 C136.41088367 456.56174334 121.88598461 456.58065128 107.36108398 456.59858704 C106.6995482 456.59940672 106.03801241 456.60022639 105.35643008 456.60107091 C89.89120714 456.6201936 74.42598439 456.63716133 58.96075439 456.64942932 C57.95937124 456.65022382 57.95937124 456.65022382 56.93775812 456.65103437 C51.55321164 456.65528803 46.16866511 456.65946323 40.78411855 456.66361917 C17.90872955 456.68133529 -4.96662839 456.71030408 -27.84199035 456.75006831 C-41.48767818 456.7733707 -55.13331163 456.78745401 -68.77901952 456.78939594 C-78.11515541 456.79151114 -87.45123699 456.80448879 -96.78734846 456.82587527 C-102.16118471 456.83784781 -107.53491316 456.84509297 -112.90876198 456.83916283 C-117.84005209 456.8338184 -122.77112333 456.84250663 -127.70237707 456.86171921 C-129.4725384 456.86624558 -131.24272154 456.86589304 -133.01287808 456.85977082 C-148.954452 456.80961289 -164.9462414 458.31361561 -180.28735352 462.88569641 C-181.14393555 463.1373053 -182.00051758 463.38891418 -182.88305664 463.64814758 C-216.31805467 473.95686253 -243.85716289 497.81507755 -260.41235352 528.44819641 C-268.26082589 543.52381798 -272.73172346 559.4204015 -276.85327148 575.83003235 C-295.9226468 650.88965755 -295.9226468 650.88965755 -331.03735352 673.44819641 C-355.63886994 688.0580698 -380.46187745 689.58353599 -408.28497005 689.46348429 C-411.72020965 689.45083248 -415.15545419 689.44979521 -418.5907135 689.44743347 C-425.07136897 689.44126057 -431.55195554 689.4249076 -438.03258091 689.40473449 C-445.42092837 689.38224364 -452.80927943 689.37134919 -460.1976527 689.36134362 C-475.37342444 689.34053675 -490.54913203 689.30544392 -505.72485352 689.26069641 C-502.93052722 677.90954563 -499.97700543 666.60837374 -496.92797852 655.32319641 C-496.46229917 653.59556172 -495.9967209 651.86789977 -495.53123474 650.14021301 C-494.27728322 645.4880046 -493.02126728 640.83635601 -491.76467514 636.18486023 C-490.96441536 633.22205113 -490.16470518 630.25909418 -489.36514282 627.2960968 C-481.28317889 597.34846625 -473.14675374 567.4159369 -464.97357178 537.49308777 C-455.69479713 503.52221706 -446.46454795 469.53826759 -437.24650192 435.55088043 C-436.10274036 431.33378926 -434.95886749 427.11672829 -433.81497192 422.89967346 C-427.61650943 400.04847175 -421.41894104 377.19702759 -415.22290039 354.34516907 C-412.94120208 345.92998733 -410.65872025 337.51501859 -408.37518501 329.10033512 C-407.28446188 325.08097272 -406.19408798 321.06151675 -405.10491943 317.04173279 C-398.07259661 291.08857895 -390.90932319 265.1721092 -383.72485352 239.26069641 C-382.55646439 239.25573119 -382.55646439 239.25573119 -381.36447144 239.25066566 C-362.3484279 239.16919048 -343.33246317 239.07701937 -324.31652832 238.97316933 C-315.1202966 238.92320054 -305.92407309 238.87675682 -296.7277832 238.83882141 C-288.70558997 238.80572007 -280.68346362 238.76579098 -272.66134453 238.71790636 C-268.41980194 238.69282026 -264.17830268 238.67098786 -259.93670654 238.65735245 C-255.93119269 238.64436755 -251.92582885 238.62214295 -247.92039871 238.59331322 C-246.46293401 238.58436394 -245.00544524 238.57857749 -243.54795456 238.57648277 C-225.05930724 238.54519705 -204.52744279 237.70412302 -189.72485352 225.26069641 C-186.6101133 221.83231917 -184.1232282 218.21721696 -181.72485352 214.26069641 C-181.21567383 213.42538391 -180.70649414 212.59007141 -180.18188477 211.72944641 C-169.58131366 192.40400847 -165.03035999 169.25692682 -159.18115234 148.11054993 C-157.45123102 141.86147251 -155.70921439 135.61574227 -153.96704102 129.37007141 C-153.78171185 128.70548542 -153.59638268 128.04089943 -153.40543747 127.35617447 C-151.11931941 119.16478173 -148.80764576 110.98209006 -146.38110352 102.83100891 C-146.15727997 102.07326172 -145.93345642 101.31551453 -145.70285034 100.5348053 C-134.5154982 63.43543574 -109.95976644 32.6812136 -75.79467773 14.32710266 C-67.30301554 9.95206368 -58.41441221 7.01533799 -49.22485352 4.51069641 C-48.14131592 4.21231873 -48.14131592 4.21231873 -47.03588867 3.90791321 C-31.47665578 -0.08554328 -15.95140041 -0.02737075 0 0 Z " fill="#FEDE47" transform="translate(1466.724853515625,267.7393035888672)"/>
<path d="M0 0 C14.05196364 -0.01099234 28.10375046 -0.0363511 42.1556536 -0.07949668 C52.30144717 -0.10954923 62.44719311 -0.12444826 72.59303033 -0.1277768 C78.56418352 -0.1301093 84.53515259 -0.13885967 90.5062561 -0.16423798 C96.02182209 -0.18737524 101.53707912 -0.19181086 107.05268097 -0.18147659 C109.06596279 -0.18098022 111.07925971 -0.1873303 113.09249496 -0.20103264 C115.83482902 -0.2186694 118.57603692 -0.21169145 121.31837082 -0.19849968 C122.50826345 -0.21495355 122.50826345 -0.21495355 123.72219431 -0.23173982 C129.03088239 -0.16993832 131.78682652 0.96393367 135.94199753 4.28924751 C128.15798413 34.07316983 120.32058401 63.84270758 112.44199753 93.60174751 C112.15750244 94.6764996 111.87300735 95.75125168 111.5798912 96.85857201 C98.58355642 145.95379091 85.50944427 195.02811839 72.34098434 244.07745552 C71.44807651 247.40338155 70.55571813 250.72945381 69.66410446 254.05572701 C40.22199402 363.89125093 40.22199402 363.89125093 4.94199753 398.28924751 C4.35676315 398.91959908 3.77152878 399.54995064 3.16856003 400.19940376 C-7.75705722 411.71394834 -21.0420203 420.04153239 -35.05800247 427.28924751 C-35.67111282 427.60877388 -36.28422318 427.92830025 -36.91591263 428.25750923 C-59.18072497 439.69790301 -84.45793672 445.45654905 -109.43815994 445.42727852 C-110.43432449 445.4300998 -111.43048904 445.43292108 -112.4568404 445.43582785 C-115.76937776 445.44410954 -119.08188142 445.44550659 -122.39442825 445.44696236 C-124.78057828 445.45163558 -127.16672743 445.45677997 -129.55287552 445.46235847 C-134.68189408 445.4736092 -139.81090693 445.48205818 -144.93993378 445.48847771 C-153.07134244 445.49886506 -161.20271109 445.51944686 -169.334095 445.54159737 C-172.12481486 445.54907605 -174.91553488 445.55649006 -177.70625496 445.56388474 C-178.752322 445.56666058 -178.752322 445.56666058 -179.8195217 445.56949251 C-187.7452028 445.59038876 -195.67088832 445.60922827 -203.59657669 445.62713814 C-204.32031746 445.62877632 -205.04405823 445.6304145 -205.78973053 445.63210233 C-217.48375398 445.65831373 -229.17778054 445.6770001 -240.87182082 445.69373004 C-252.92274196 445.71124655 -264.97360243 445.74019436 -277.02447498 445.77861941 C-283.7723139 445.79975771 -290.52006201 445.81512839 -297.26793671 445.81742668 C-303.62923462 445.81959588 -309.99035363 445.83569328 -316.35159683 445.86181641 C-318.66682189 445.86892593 -320.98206883 445.87115179 -323.29730225 445.86771393 C-366.59223239 445.81376658 -407.86052771 454.80726164 -439.82753372 485.90252876 C-450.28703093 496.56580309 -458.28682586 509.05156301 -465.05800247 522.28924751 C-465.6483931 523.4068647 -466.23878372 524.52448189 -466.84706497 525.67596626 C-477.44312695 546.89228215 -482.91368135 570.4747271 -488.72084427 593.33856392 C-492.27843616 607.21176223 -496.57223492 620.36070922 -503.37050247 633.03924751 C-503.75021194 633.74895699 -504.12992142 634.45866646 -504.52113724 635.18988228 C-508.01036126 641.51935622 -512.14430797 646.98279172 -517.05800247 652.28924751 C-517.81597122 653.1387397 -518.57393997 653.98823189 -519.35487747 654.86346626 C-539.55319048 676.41493423 -568.25807646 683.2376805 -596.77209473 684.39986992 C-603.22001994 684.56528315 -609.66711169 684.5452672 -616.11659622 684.51971626 C-618.16380153 684.51851826 -620.2110074 684.5180726 -622.25821304 684.51832771 C-626.51288255 684.51677949 -630.76746595 684.5086213 -635.0221138 684.49505806 C-640.40802663 684.47808223 -645.79384545 684.47424466 -651.17978191 684.47500324 C-655.3969038 684.47472805 -659.61400616 684.46919145 -663.83112144 684.4620018 C-665.81414582 684.45887549 -667.79717235 684.45686232 -669.78019905 684.45610809 C-683.5642338 684.44511834 -697.29349786 684.02504518 -711.05800247 683.28924751 C-710.42794027 676.92152845 -709.05415434 670.99644331 -707.35609818 664.83441353 C-707.07870615 663.8107031 -706.80131413 662.78699266 -706.51551628 661.7322607 C-705.59343546 658.33446436 -704.66361941 654.93883536 -703.73378372 651.54315376 C-703.0775879 649.13114437 -702.42188245 646.71900153 -701.76663589 644.30673409 C-700.36921049 639.16626992 -698.96852315 634.02671241 -697.56477737 628.88797188 C-695.54092284 621.47908512 -693.52322269 614.06853332 -691.50716591 606.65752137 C-688.56325202 595.83600188 -685.61615502 585.01535378 -682.66597748 574.19554031 C-679.04025024 560.8981345 -675.42179773 547.59877415 -671.81190872 534.29706001 C-671.46434902 533.01645258 -671.46434902 533.01645258 -671.10976791 531.70997429 C-670.20509082 528.37655376 -669.30046132 525.04312033 -668.3959465 521.70965576 C-665.99757464 512.87104965 -663.59617521 504.0332666 -661.19472122 495.19549751 C-660.34102092 492.05357638 -659.48734665 488.91164818 -658.63368607 485.76971626 C-658.42250137 484.99244368 -658.21131668 484.21517109 -657.99373245 483.41434479 C-655.1097241 472.79935281 -652.22700954 462.18400943 -649.34418106 451.56869698 C-647.07215527 443.2025419 -644.80001351 434.83641837 -642.52748489 426.47039986 C-642.18906681 425.22455274 -642.18906681 425.22455274 -641.84381199 423.95353699 C-640.92343689 420.56529023 -640.00306004 417.17704395 -639.08267021 413.78880119 C-636.36539206 403.78556525 -633.64868332 393.78217503 -630.93300247 383.77850533 C-611.0144811 310.40545268 -611.0144811 310.40545268 -603.69862747 283.69159126 C-603.50801491 282.99556864 -603.31740234 282.29954601 -603.12101364 281.58243179 C-599.44133783 268.14917687 -595.74896368 254.71940488 -592.05800247 241.28924751 C-591.14252325 241.29201289 -591.14252325 241.29201289 -590.2085495 241.29483414 C-575.26363309 241.33926787 -560.31873737 241.37222666 -545.37377167 241.39287186 C-538.14609509 241.40312458 -530.91846298 241.41706792 -523.69081497 241.44012642 C-517.3811406 241.46024646 -511.07149847 241.47300738 -504.7617929 241.4774245 C-501.42997041 241.48000089 -498.09831221 241.48702526 -494.7665062 241.50070763 C-462.86909528 241.62635382 -432.90900639 240.21086751 -406.05800247 221.28924751 C-405.38124466 220.82002876 -404.70448685 220.35081001 -404.00722122 219.86737251 C-382.2306705 203.02822589 -373.20135703 172.35778731 -365.94438553 147.12487984 C-358.133467 119.99174234 -347.9077631 94.41750126 -335.05800247 69.28924751 C-334.55736282 68.30472603 -334.05672318 67.32020454 -333.54091263 66.30584908 C-327.75011372 55.02435403 -321.41015324 44.84924777 -313.05800247 35.28924751 C-312.40573685 34.53643501 -311.75347122 33.78362251 -311.08143997 33.00799751 C-292.5603748 13.1471106 -264.55203041 2.98201839 -237.91283035 1.89427376 C-235.24532225 1.81906852 -232.57889934 1.7534871 -229.91102982 1.69818306 C-228.39666708 1.66118177 -226.88231067 1.62392139 -225.36795998 1.58643055 C-204.56965432 1.09731562 -183.76383123 0.94558036 -162.96102476 0.77547622 C-159.34723165 0.7457663 -155.73344919 0.71495577 -152.11966705 0.68394089 C-101.41381785 0.25220341 -50.70763101 0.03910623 0 0 Z " fill="#FEDE47" transform="translate(1472.0580024719238,1012.7107524871826)"/>
<path d="M0 0 C1.30918734 3.92756203 0.2478616 6.6537978 -0.83227539 10.50048828 C-1.0411202 11.26994939 -1.249965 12.0394105 -1.46513844 12.83218861 C-2.16799841 15.41381618 -2.8828684 17.9919642 -3.59765625 20.5703125 C-4.09972148 22.40527612 -4.60101678 24.24045055 -5.10159302 26.07582092 C-6.17941297 30.02141775 -7.26249856 33.96551707 -8.34970093 37.90853882 C-10.07835097 44.17807603 -11.79560252 50.45069902 -13.51098633 56.72387695 C-15.57115249 64.25510859 -17.63394498 71.78561036 -19.70036221 79.31512928 C-23.08090559 91.63370388 -26.44374568 103.95697037 -29.7890625 116.28515625 C-30.01539871 117.11923067 -30.24173492 117.95330509 -30.47492981 118.8126545 C-31.60014747 122.95975133 -32.7249294 127.10696617 -33.8494873 131.25424194 C-35.87739442 138.73230866 -37.90887292 146.20940552 -39.93998718 153.68660164 C-41.0639851 157.82455499 -42.1877462 161.96257265 -43.31152344 166.10058594 C-43.7597242 167.75093607 -44.20792569 169.40128601 -44.65612793 171.05163574 C-45.10408541 172.70109046 -45.55204276 174.35054521 -46 176 C-49.37748106 188.43646006 -52.75500908 200.87290737 -56.1326561 213.30932236 C-56.81098763 215.80693149 -57.48931067 218.30454293 -58.16763306 220.80215454 C-64.1116956 242.68829643 -70.05791916 264.57385022 -76.00585938 286.4589386 C-81.44034581 306.45481601 -86.87387554 326.45095323 -92.30648041 346.44734192 C-92.98368801 348.93995997 -93.6609357 351.43256712 -94.3381958 353.9251709 C-96.69468984 362.59821225 -99.0503889 371.27146863 -101.40460205 379.94512939 C-102.08380983 382.44711684 -102.76328614 384.94903141 -103.4430542 387.4508667 C-104.35732532 390.81599762 -105.27060223 394.18139673 -106.18359375 397.546875 C-106.44378799 398.50371185 -106.70398224 399.46054871 -106.97206116 400.44638062 C-108.05317772 404.43546921 -109.10999168 408.42366342 -110.07861328 412.44165039 C-115.22562447 432.31915119 -133.81524437 448.17201053 -150.62109375 458.15234375 C-174.37605112 471.14204877 -198.15288046 472.31673041 -224.56011653 472.20278788 C-227.99535614 472.19013607 -231.43060067 472.1890988 -234.86585999 472.18673706 C-241.34651545 472.18056416 -247.82710203 472.16421119 -254.3077274 472.14403808 C-261.69607486 472.12154723 -269.08442591 472.11065277 -276.47279918 472.10064721 C-291.64857092 472.07984034 -306.82427851 472.04474751 -322 472 C-319.2056737 460.64884922 -316.25215191 449.34767733 -313.203125 438.0625 C-312.73744565 436.3348653 -312.27186738 434.60720336 -311.80638123 432.8795166 C-310.5524297 428.22730819 -309.29641376 423.57565959 -308.03982162 418.92416382 C-307.23956184 415.96135472 -306.43985167 412.99839777 -305.64028931 410.03540039 C-297.55832537 380.08776983 -289.42190023 350.15524049 -281.24871826 320.23239136 C-271.96994361 286.26152065 -262.73969443 252.27757118 -253.52164841 218.29018402 C-252.37788684 214.07309285 -251.23401398 209.85603187 -250.09011841 205.63897705 C-243.89165591 182.78777534 -237.69408752 159.93633118 -231.49804688 137.08447266 C-229.21634856 128.66929092 -226.93386673 120.25432218 -224.6503315 111.83963871 C-223.55960837 107.82027631 -222.46923447 103.80082034 -221.38006592 99.78103638 C-214.34774309 73.82788254 -207.18446967 47.91141279 -200 22 C-198.83161087 21.99503478 -198.83161087 21.99503478 -197.63961792 21.98996925 C-178.62357439 21.90849407 -159.60760966 21.81632296 -140.5916748 21.71247292 C-131.39544308 21.66250413 -122.19921957 21.6160604 -113.00292969 21.578125 C-104.98073646 21.54502366 -96.95861011 21.50509457 -88.93649101 21.45720994 C-84.69494842 21.43212385 -80.45344917 21.41029145 -76.21185303 21.39665604 C-72.20633917 21.38367113 -68.20097533 21.36144654 -64.1955452 21.33261681 C-62.73808049 21.32366752 -61.28059172 21.31788108 -59.82310104 21.31578636 C-41.15052273 21.2841894 -21.08629307 20.30075203 -6 8 C-3.72353359 5.48088697 -1.77886956 2.88972481 0 0 Z " fill="#F9B410" transform="translate(1283,485)"/>
<path d="M0 0 C1.33910488 2.67820975 0.72211249 3.72594288 -0.06044006 6.5927887 C-0.32171503 7.56371366 -0.58299 8.53463861 -0.85218239 9.53498554 C-1.14854277 10.60697791 -1.44490314 11.67897028 -1.75024414 12.78344727 C-2.05660482 13.91357081 -2.36296551 15.04369436 -2.67860985 16.20806408 C-3.52846775 19.33745543 -4.38473863 22.46500988 -5.24372745 25.59190464 C-6.15522818 28.91599759 -7.05849158 32.24232759 -7.96266174 35.56842041 C-9.5118703 41.26299105 -11.06619967 46.95614305 -12.62408447 52.64834595 C-14.86561549 60.83858309 -17.099142 69.0309858 -19.33043432 77.2240175 C-22.55981325 89.08157075 -25.79324458 100.93801201 -29.0306592 112.7933737 C-32.81342798 126.64587857 -36.58749369 140.50071422 -40.34765625 154.359375 C-40.57716791 155.20522093 -40.80667957 156.05106686 -41.04314613 156.92254448 C-41.93269602 160.2011055 -42.82214264 163.4796945 -43.71138859 166.75833797 C-46.05757525 175.40861464 -48.40761271 184.05784421 -50.7578125 192.70703125 C-51.18194397 194.26802992 -51.60607218 195.82902947 -52.03019714 197.39002991 C-53.35339869 202.26003789 -54.67668816 207.13002198 -56 212 C-56.23867294 212.87835258 -56.47734589 213.75670517 -56.72325134 214.6616745 C-58.52119734 221.27836481 -60.31918415 227.89504403 -62.1171875 234.51171875 C-62.37847946 235.47327944 -62.63977142 236.43484013 -62.90898132 237.42553902 C-65.56228765 247.18974275 -68.21566093 256.95392826 -70.86938477 266.71801853 C-76.02801926 285.6987103 -81.18541362 304.67973576 -86.33701324 323.66233826 C-87.08290299 326.41069384 -87.82887956 329.15902584 -88.57489014 331.90734863 C-88.81783688 332.80237343 -89.06078362 333.69739822 -89.31109238 334.61954498 C-89.79565931 336.4046972 -90.2802301 338.18984838 -90.76480484 339.97499847 C-91.9099057 344.1936792 -93.05476177 348.41242599 -94.19897461 352.63134766 C-97.12579923 363.42276906 -100.05909497 374.21240721 -103 385 C-103.23652786 385.86807281 -103.47305573 386.73614563 -103.7167511 387.63052368 C-105.21323702 393.12183503 -106.71285227 398.61227773 -108.21628189 404.1016922 C-108.6959193 405.85432346 -109.17473008 407.60718119 -109.65264511 409.3602829 C-116.70760053 435.23016113 -127.23779767 456.53130532 -151.234375 470.8984375 C-175.82583166 484.94518054 -202.33482757 486.34030206 -230.05859375 486.23046875 C-232.10579906 486.22927075 -234.15300493 486.22882509 -236.20021057 486.2290802 C-240.45488008 486.22753198 -244.70946348 486.21937379 -248.96411133 486.20581055 C-254.35002416 486.18883472 -259.73584298 486.18499715 -265.12177944 486.18575573 C-269.33890133 486.18548053 -273.55600369 486.17994394 -277.77311897 486.17275429 C-279.75614335 486.16962798 -281.73916988 486.16761481 -283.72219658 486.16686058 C-297.50623132 486.15587082 -311.23549539 485.73579767 -325 485 C-324.3699378 478.63228094 -322.99615187 472.70719579 -321.2980957 466.54516602 C-320.88200767 465.00960037 -320.88200767 465.00960037 -320.45751381 463.44301319 C-319.53543299 460.04521684 -318.60561693 456.64958785 -317.67578125 453.25390625 C-317.01958543 450.84189686 -316.36387998 448.42975401 -315.70863342 446.01748657 C-314.31120802 440.8770224 -312.91052068 435.7374649 -311.5067749 430.59872437 C-309.48292037 423.1898376 -307.46522022 415.77928581 -305.44916344 408.36827385 C-302.50524955 397.54675437 -299.55815255 386.72610627 -296.60797501 375.9062928 C-292.98224777 362.60888698 -289.36379526 349.30952663 -285.75390625 336.0078125 C-285.52219978 335.15407421 -285.29049332 334.30033592 -285.05176544 333.42072678 C-284.14708835 330.08730625 -283.24245885 326.75387281 -282.33794403 323.42040825 C-279.93957217 314.58180214 -277.53817274 305.74401909 -275.13671875 296.90625 C-274.28301845 293.76432887 -273.42934418 290.62240067 -272.57568359 287.48046875 C-272.3644989 286.70319616 -272.15331421 285.92592358 -271.93572998 285.12509727 C-269.05172163 274.51010529 -266.16900707 263.89476192 -263.28617859 253.27944946 C-261.0141528 244.91329438 -258.74201104 236.54717085 -256.46948242 228.18115234 C-256.24387036 227.3505876 -256.0182583 226.52002285 -255.78580952 225.66428947 C-254.86543442 222.27604272 -253.94505757 218.88779644 -253.02466774 215.49955368 C-250.30738958 205.49631774 -247.59068085 195.49292752 -244.875 185.48925781 C-224.95647862 112.11620517 -224.95647862 112.11620517 -217.640625 85.40234375 C-217.45001244 84.70632113 -217.25939987 84.0102985 -217.06301117 83.29318428 C-213.38333536 69.85992936 -209.69096121 56.43015736 -206 43 C-205.08452078 43.00276538 -205.08452078 43.00276538 -204.15054703 43.00558662 C-189.20563062 43.05002036 -174.2607349 43.08297914 -159.3157692 43.10362434 C-152.08809262 43.11387706 -144.86046051 43.1278204 -137.6328125 43.15087891 C-131.32313813 43.17099895 -125.01349599 43.18375987 -118.70379043 43.18817699 C-115.37196793 43.19075338 -112.04030974 43.19777775 -108.70850372 43.21146011 C-76.81109281 43.33710631 -46.85100392 41.92162 -20 23 C-18.98486328 22.29617188 -18.98486328 22.29617188 -17.94921875 21.578125 C-10.75774923 16.0171796 -4.99638536 7.49457804 0 0 Z " fill="#F9B410" transform="translate(1086,1211)"/>
</svg>
